<svg viewBox="0 0 12 11" fill="currentColor" xmlns="http://www.w3.org/2000/svg">
<path d="M9 6C9 7.65685 7.65685 9 6 9C4.34315 9 3 7.65685 3 6C3 4.34315 4.34315 3 6 3C7.65685 3 9 4.34315 9 6ZM8 6C8 4.89543 7.10457 4 6 4C4.89543 4 4 4.89543 4 6C4 7.10457 4.89543 8 6 8C7.10457 8 8 7.10457 8 6ZM4.61803 0C4.04988 0 3.53048 0.321004 3.27639 0.82918L2.69098 2H2C0.895431 2 0 2.89543 0 4V9C0 10.1046 0.895431 11 2 11H10C11.1046 11 12 10.1046 12 9V4C12 2.89543 11.1046 2 10 2H9.30902L8.72361 0.829179C8.46952 0.321003 7.95012 0 7.38197 0H4.61803ZM4.17082 1.27639C4.25552 1.107 4.42865 1 4.61803 1H7.38197C7.57135 1 7.74448 1.107 7.82918 1.27639L8.55279 2.72361C8.63748 2.893 8.81061 3 9 3H10C10.5523 3 11 3.44772 11 4V9C11 9.55229 10.5523 10 10 10H2C1.44772 10 1 9.55228 1 9V4C1 3.44772 1.44772 3 2 3H3C3.18939 3 3.36252 2.893 3.44721 2.72361L4.17082 1.27639Z" />
</svg>
