<svg  viewBox="0 0 17 17" fill="currentColor" xmlns="http://www.w3.org/2000/svg">
<path d="M7 3H10C10 2.17157 9.32843 1.5 8.5 1.5C7.67157 1.5 7 2.17157 7 3ZM6 3C6 1.61929 7.11929 0.5 8.5 0.5C9.88071 0.5 11 1.61929 11 3H16C16.2761 3 16.5 3.22386 16.5 3.5C16.5 3.77614 16.2761 4 16 4H14.9456L13.7521 14.3439C13.5774 15.8576 12.2957 17 10.7719 17H6.22813C4.70431 17 3.42256 15.8576 3.2479 14.3439L2.05437 4H1C0.723858 4 0.5 3.77614 0.5 3.5C0.5 3.22386 0.723858 3 1 3H6ZM4.24131 14.2292C4.35775 15.2384 5.21225 16 6.22813 16H10.7719C11.7878 16 12.6422 15.2384 12.7587 14.2292L13.939 4H3.06101L4.24131 14.2292ZM7 6.5C7.27614 6.5 7.5 6.72386 7.5 7V13C7.5 13.2761 7.27614 13.5 7 13.5C6.72386 13.5 6.5 13.2761 6.5 13V7C6.5 6.72386 6.72386 6.5 7 6.5ZM10.5 7C10.5 6.72386 10.2761 6.5 10 6.5C9.72386 6.5 9.5 6.72386 9.5 7V13C9.5 13.2761 9.72386 13.5 10 13.5C10.2761 13.5 10.5 13.2761 10.5 13V7Z"/>
</svg>
