<svg viewBox="0 0 16 16" fill="currentColor" xmlns="http://www.w3.org/2000/svg">
<path d="M4.44025 3.28258C3.77199 3.95096 3.88082 5.06343 4.66594 5.58958L6.43182 6.77297L0.578897 12.6256C-0.192966 13.3975 -0.192966 14.6489 0.578898 15.4207C1.35076 16.1925 2.6022 16.1925 3.37406 15.4207L9.22671 9.56829L10.41 11.3346C10.936 12.1199 12.0483 12.2287 12.7166 11.5603L15.5573 8.71912C16.211 8.06535 16.1235 6.98153 15.3734 6.44114L12.0592 4.05353C12.0155 4.02206 11.9772 3.98374 11.9457 3.94005L9.55857 0.625352C9.01828 -0.124865 7.93464 -0.212399 7.28098 0.441375L4.44025 3.28258ZM8.65937 8.72142L2.66694 14.7136C2.28561 15.0949 1.66735 15.0949 1.28602 14.7136C0.904689 14.3323 0.904689 13.714 1.28602 13.3327L7.27858 7.34043L8.02336 7.83954C8.07755 7.87585 8.12411 7.92242 8.16041 7.97661L8.65937 8.72142ZM5.22253 4.75875C4.96082 4.58337 4.92454 4.21254 5.1473 3.98975L7.98802 1.14854C8.20591 0.930618 8.56712 0.959795 8.74722 1.20987L9.31524 1.99859L6.02031 5.29338L5.22253 4.75875ZM6.86708 5.86083L9.90732 2.82072L11.1344 4.52456C11.2288 4.65564 11.3437 4.7706 11.4748 4.86502L13.1795 6.09313L10.139 9.13346L8.9911 7.41993C8.88218 7.25734 8.74251 7.11765 8.57995 7.00871L6.86708 5.86083ZM14.0015 6.68533L14.789 7.25263C15.039 7.43276 15.0682 7.79403 14.8503 8.01196L12.0095 10.8532C11.7868 11.076 11.416 11.0397 11.2407 10.7779L10.7064 9.98034L14.0015 6.68533ZM10.0007 14.4995C10.0007 14.2234 10.2246 13.9995 10.5007 13.9995H13.5007C13.7769 13.9995 14.0007 14.2234 14.0007 14.4995C14.0007 14.7757 13.7769 14.9995 13.5007 14.9995H15.5007C15.7769 14.9995 16.0007 15.2234 16.0007 15.4995C16.0007 15.7757 15.7769 15.9995 15.5007 15.9995H8.50074C8.2246 15.9995 8.00074 15.7757 8.00074 15.4995C8.00074 15.2234 8.2246 14.9995 8.50074 14.9995H10.5007C10.2246 14.9995 10.0007 14.7757 10.0007 14.4995Z" />
</svg>
