<svg  viewBox="0 0 16 15" fill="currentColor" xmlns="http://www.w3.org/2000/svg">
<path d="M7.15898 14.3666C7.36292 14.5528 7.67918 14.5384 7.86536 14.3345C8.05154 14.1305 8.03714 13.8143 7.8332 13.6281L1.66535 7.99736H15.4961C15.7722 7.99736 15.9961 7.7735 15.9961 7.49736C15.9961 7.22122 15.7722 6.99736 15.4961 6.99736H1.66824L7.8332 1.36927C8.03714 1.18309 8.05154 0.866835 7.86536 0.662895C7.67918 0.458954 7.36292 0.444557 7.15898 0.630737L0.242631 6.94478C0.102683 7.07254 0.0228539 7.24008 0.00314236 7.41323C-0.0014925 7.44058 -0.00390625 7.46869 -0.00390625 7.49736C-0.00390625 7.52423 -0.00178671 7.55061 0.00229454 7.57633C0.0204692 7.75224 0.100582 7.9229 0.242631 8.05258L7.15898 14.3666Z" />
</svg>
