<svg xmlns="http://www.w3.org/2000/svg" viewBox="0 0 540.78 287.5" fill="currentColor"><g id="Capa_2" data-name="Capa 2"><g id="Capa_1-2" data-name="Capa 1"><path d="M73.14,97.71c-.57,28.1-1.13,55.76-1.69,83.53-3.74.24-7.2.42-10.65.7a59.78,59.78,0,0,0-25.25,7.87,22.05,22.05,0,0,1-11.32,2.93c-7.18.08-14.37.23-21.55.53C0,193.38.1,191.89.1,190.07q0-32.64,0-65.27C.09,94,.4,63.13,0,32.3-.26,11.39,17.08-2,36.76.25A31.07,31.07,0,0,1,49.57,4.87Q103.89,38,158.29,71c1.72,1,2.93,1.29,4.79.12q34.59-21.76,69.28-43.35c12.19-7.62,24.46-15.1,36.53-22.91C274.73,1,281.1,0,287.73.17c12.78.43,22.88,5.75,29.32,17.13A22,22,0,0,1,320,28.43q-.1,79.65-.05,159.3v4.47H247.51V96.64c-2.86,1.75-5.21,3.16-7.53,4.62q-39,24.36-77.9,48.78c-1.65,1-2.67.54-4-.29q-41-25.31-82.06-50.56C75.26,98.74,74.46,98.39,73.14,97.71Z"/><path d="M533.9,199.31c-2,4.37-2.09,4.54,1.89,6,2.66,1,3.55,2.39,3.49,5.24-.17,8.48,0,17,.05,25.45v3.48h-5.44c-.32,2.62-.62,5-.94,7.62,1.07.31,1.91.58,2.75.8,4.32,1.08,5,1.77,5.07,6.24.13,5.87-2.59,10.33-7.25,13.67a4,4,0,0,1-2.21.69q-18.42,0-36.85,0a6.29,6.29,0,0,1-1.16-.29c-.25-6.18-.7-12.42-.72-18.67,0-9.49-1.08-18.57-6-27.07-15.12-26.1-51.52-30.46-72-8.38-7.91,8.52-12.41,18.43-12.17,30.29.16,7.86,0,15.74,0,23.89H326.66C327.91,178,336.27,88.65,358,.5c2.74.25,5.51.38,8.24.79C394.05,5.44,422,9,449.67,14.05c22.05,4.05,42.3,13.58,61.52,25.08A19.79,19.79,0,0,1,520.35,52c2.14,8.91,4.06,17.89,6,26.85.23,1,.28,2.13.43,3.3l-3.06.74c.52,4.72,1.07,9.43,1.57,14.14,1.22,11.51,2.48,23,3.57,34.54.34,3.55,2.18,5.54,5.27,6.92a3.59,3.59,0,0,1,1.89,2.43q2,26.57,3.72,53.14a8.2,8.2,0,0,1-.47,3.17C538.37,199.94,536.18,200.08,533.9,199.31ZM453,121.11c1.28.35,2.22.63,3.18.88q21.88,5.63,43.77,11.26c5.18,1.35,8.46-1.14,8.16-6.51-.29-5.08-.79-10.15-1.25-15.21-.74-7.94-1.47-15.89-2.31-23.82-.43-4-2.07-6.08-5.16-6.39q-20.12-2-40.24-3.84A4.38,4.38,0,0,0,454,82C453.58,95,453.3,107.91,453,121.11ZM442.89,119c.4-13.46.83-26.28,1.1-39.1,0-2.42-1.63-3.72-4.1-3.86-6.07-.34-12.14-.72-18.21-1.06A9.92,9.92,0,0,0,411.92,80c-4.13,6.7-8.47,13.26-12.7,19.9-2.35,3.69-1.21,7,3,8.34s8.4,2.5,12.64,3.61C424,114.21,433.21,116.49,442.89,119Z"/><path d="M319.63,198.81c-1.05,23.55-2.08,46.64-3.12,69.94h-116c-.24-6.1-.37-12.15-.75-18.18-.34-5.46-.15-11.13-1.6-16.3C192.7,215,173.78,200.93,152.93,200c-17.39-.83-32.15,4.75-43.86,17.86-.26.28-.58.51-1,.89-1.74-1.76-3.36-3.5-5.09-5.11C78.68,191,38.19,196.87,21.63,225.34a35.29,35.29,0,0,0-4.8,18.57c.07,7.38-.17,14.76-.29,22.14,0,.87-.14,1.74-.22,2.71H.07v-22.6q0-21.25,0-42.51c0-3.9,0-3.88,3.9-4,8.28-.22,16.56-.41,24.83-.73a8.3,8.3,0,0,0,3.62-1.07q37.05-20.69,73.19,1.5c1.79,1.11,2.87,1.11,4.68-.05,23-14.77,46.92-16.42,71.21-3.66A31.09,31.09,0,0,0,197,199.39q58.56-.42,117.13-.58Z"/><path d="M487.73,247.63a40,40,0,0,1-40.14,39.87c-22.09,0-40.22-18.06-40.11-39.94a40.13,40.13,0,1,1,80.25.07Z"/><path d="M150.72,287.5c-22.05-.05-40.06-17.93-40-39.68.08-22.64,17.87-40.6,40.14-40.54,22.42.06,40.16,18.23,40,41C190.79,269.81,172.61,287.55,150.72,287.5Z"/><path d="M106.44,247.63A40,40,0,0,1,66.59,287.5c-22,.08-40.22-17.58-40.3-39.05-.09-23.06,17.57-41.2,40.08-41.17A40.2,40.2,0,0,1,106.44,247.63Z"/></g></g></svg>