<svg viewBox="0 0 16 16" fill="currentColor" xmlns="http://www.w3.org/2000/svg">
<path d="M9 9.5V12.5C9 12.7761 9.22386 13 9.5 13H12.5C12.7761 13 13 12.7761 13 12.5V9.5C13 9.22386 12.7761 9 12.5 9H9.5C9.22386 9 9 9.22386 9 9.5ZM10 12V10H12V12H10ZM3.00001 0C2.85162 0 2.71089 0.0659115 2.6159 0.179908L0.115895 3.17991C0.0395518 3.27152 1.93447e-05 3.3852 0 3.5V5C0 5.8885 0.386251 6.68679 1 7.23611V15.5C1 15.7761 1.22386 16 1.5 16H14.5C14.7761 16 15 15.7761 15 15.5V7.23611C15.6137 6.68679 16 5.8885 16 5V3.5C16 3.49401 16 3.48813 16.0001 3.48233C16.0005 3.39121 16.0009 3.32003 15.8841 3.17991L13.3841 0.179908C13.2891 0.0659115 13.1484 0 13 0H3.00001ZM3 7C1.89543 7 1 6.10457 1 5V4H5V5C5 6.10457 4.10457 7 3 7ZM8 7C6.89543 7 6 6.10457 6 5V4H10V5C10 6.10457 9.10457 7 8 7ZM13 7C11.8954 7 11 6.10457 11 5V4H15V5C15 6.10457 14.1046 7 13 7ZM3 15H2V7.82929C2.31278 7.93985 2.64936 8 3 8C4.04349 8 4.96254 7.46725 5.5 6.6589C6.03746 7.46725 6.95651 8 8 8C9.04349 8 9.96254 7.46724 10.5 6.65889C11.0375 7.46724 11.9565 8 13 8C13.3506 8 13.6872 7.93985 14 7.82929V15H8V9.5C8 9.22386 7.77614 9 7.5 9H3.5C3.22386 9 3 9.22386 3 9.5V15ZM5.13964 3H1.56753L3.23419 1H5.8063L5.13964 3ZM9.80628 3H6.19373L6.8604 1H9.13962L9.80628 3ZM10.8604 3L10.1937 1H12.7658L14.4325 3H10.8604ZM4 15V10H7V15H4Z" />
</svg>
