<svg viewBox="0 0 57 18" fill="currentColor" xmlns="http://www.w3.org/2000/svg">
<path d="M7.833 0.57V7.5H7.035V3.1425L7.1295 1.3155H7.119L4.8405 7.5H4.1265L1.848 1.3155H1.8375L1.932 3.1425V7.5H1.134V0.57H2.4255L3.948 4.7805L4.473 6.513H4.494L5.0295 4.791L6.5415 0.57H7.833ZM15.4087 0.57V4.917C15.4087 5.806 15.1742 6.478 14.7052 6.933C14.2362 7.381 13.5642 7.605 12.6892 7.605C11.8212 7.605 11.1492 7.381 10.6732 6.933C10.2042 6.478 9.96967 5.806 9.96967 4.917V0.57H10.8097V4.707C10.8097 5.428 10.9602 5.96 11.2612 6.303C11.5692 6.646 12.0452 6.8175 12.6892 6.8175C13.3332 6.8175 13.8057 6.646 14.1067 6.303C14.4147 5.96 14.5687 5.428 14.5687 4.707V0.57H15.4087ZM22.9793 0.57V7.5H21.9398L19.0418 2.859L18.3068 1.557H18.2963L18.3383 2.607V7.5H17.5403V0.57H18.5798L21.4673 5.19L22.2128 6.5235H22.2233L22.1813 5.463V0.57H22.9793ZM27.4877 0.57C28.5727 0.57 29.4232 0.871 30.0392 1.473C30.6622 2.068 30.9737 2.922 30.9737 4.035C30.9737 5.148 30.6622 6.0055 30.0392 6.6075C29.4232 7.2025 28.5727 7.5 27.4877 7.5H25.2512V0.57H27.4877ZM27.5717 6.7125C28.3627 6.7125 28.9787 6.478 29.4197 6.009C29.8677 5.533 30.0917 4.875 30.0917 4.035C30.0917 3.195 29.8677 2.5405 29.4197 2.0715C28.9787 1.5955 28.3627 1.3575 27.5717 1.3575H26.0912V6.7125H27.5717ZM35.6116 0.465C36.2696 0.465 36.8366 0.612 37.3126 0.906C37.7956 1.193 38.1666 1.6025 38.4256 2.1345C38.6916 2.6665 38.8246 3.3 38.8246 4.035C38.8246 4.77 38.6916 5.4035 38.4256 5.9355C38.1666 6.4675 37.7956 6.8805 37.3126 7.1745C36.8366 7.4615 36.2696 7.605 35.6116 7.605C34.9536 7.605 34.3831 7.4615 33.9001 7.1745C33.4241 6.8805 33.0531 6.4675 32.7871 5.9355C32.5281 5.4035 32.3986 4.77 32.3986 4.035C32.3986 3.3 32.5281 2.6665 32.7871 2.1345C33.0531 1.6025 33.4241 1.193 33.9001 0.906C34.3831 0.612 34.9536 0.465 35.6116 0.465ZM35.6116 1.2525C35.1356 1.2525 34.7226 1.3645 34.3726 1.5885C34.0226 1.8055 33.7531 2.124 33.5641 2.544C33.3751 2.957 33.2806 3.454 33.2806 4.035C33.2806 4.616 33.3751 5.1165 33.5641 5.5365C33.7531 5.9495 34.0226 6.268 34.3726 6.492C34.7226 6.709 35.1356 6.8175 35.6116 6.8175C36.0946 6.8175 36.5076 6.709 36.8506 6.492C37.2006 6.268 37.4701 5.9495 37.6591 5.5365C37.8481 5.1165 37.9426 4.616 37.9426 4.035C37.9426 3.454 37.8481 2.957 37.6591 2.544C37.4701 2.124 37.2006 1.8055 36.8506 1.5885C36.5076 1.3645 36.0946 1.2525 35.6116 1.2525Z" />
<path d="M6.909 15.5155C6.776 15.9985 6.5625 16.3975 6.2685 16.7125C5.9745 17.0205 5.6245 17.248 5.2185 17.395C4.8125 17.535 4.3645 17.605 3.8745 17.605C3.1745 17.605 2.569 17.465 2.058 17.185C1.547 16.898 1.155 16.4885 0.882 15.9565C0.609 15.4245 0.4725 14.784 0.4725 14.035C0.4725 13.286 0.609 12.6455 0.882 12.1135C1.155 11.5815 1.547 11.1755 2.058 10.8955C2.569 10.6085 3.171 10.465 3.864 10.465C4.347 10.465 4.7915 10.535 5.1975 10.675C5.6035 10.808 5.9465 11.0145 6.2265 11.2945C6.5065 11.5745 6.706 11.935 6.825 12.376L5.2395 13.0165C5.1415 12.5825 4.9805 12.285 4.7565 12.124C4.5395 11.963 4.263 11.8825 3.927 11.8825C3.598 11.8825 3.311 11.963 3.066 12.124C2.828 12.285 2.6425 12.5265 2.5095 12.8485C2.3835 13.1635 2.3205 13.559 2.3205 14.035C2.3205 14.504 2.38 14.8995 2.499 15.2215C2.618 15.5435 2.7965 15.785 3.0345 15.946C3.2795 16.107 3.5805 16.1875 3.9375 16.1875C4.2735 16.1875 4.557 16.0965 4.788 15.9145C5.026 15.7255 5.187 15.4385 5.271 15.0535L6.909 15.5155ZM14.2135 17.5H12.355L11.872 15.9355H9.49897L9.00547 17.5H7.18897L9.62497 10.57H11.788L14.2135 17.5ZM9.83497 14.707H11.536L10.6855 11.9035L9.83497 14.707ZM23.0414 10.57V17.5H21.4454V14.3185L21.4979 12.187H21.4769L19.7654 17.5H18.3059L16.5944 12.187H16.5734L16.6259 14.3185V17.5H15.0194V10.57H17.5919L18.6839 14.098L19.0724 15.568H19.0934L19.4924 14.1085L20.5739 10.57H23.0414ZM26.3821 10.57V17.5H24.5761V10.57H26.3821ZM31.0268 10.465C31.7268 10.465 32.3288 10.6085 32.8328 10.8955C33.3438 11.1755 33.7358 11.5815 34.0088 12.1135C34.2818 12.6455 34.4183 13.286 34.4183 14.035C34.4183 14.784 34.2818 15.4245 34.0088 15.9565C33.7358 16.4885 33.3438 16.898 32.8328 17.185C32.3288 17.465 31.7268 17.605 31.0268 17.605C30.3268 17.605 29.7213 17.465 29.2103 17.185C28.6993 16.898 28.3073 16.4885 28.0343 15.9565C27.7613 15.4245 27.6248 14.784 27.6248 14.035C27.6248 13.286 27.7613 12.6455 28.0343 12.1135C28.3073 11.5815 28.6993 11.1755 29.2103 10.8955C29.7213 10.6085 30.3268 10.465 31.0268 10.465ZM31.0268 11.8825C30.6908 11.8825 30.4073 11.963 30.1763 12.124C29.9453 12.285 29.7703 12.5265 29.6513 12.8485C29.5323 13.1635 29.4728 13.559 29.4728 14.035C29.4728 14.504 29.5323 14.8995 29.6513 15.2215C29.7703 15.5435 29.9453 15.785 30.1763 15.946C30.4073 16.107 30.6908 16.1875 31.0268 16.1875C31.3628 16.1875 31.6428 16.107 31.8668 15.946C32.0978 15.785 32.2728 15.5435 32.3918 15.2215C32.5108 14.8995 32.5703 14.504 32.5703 14.035C32.5703 13.559 32.5108 13.1635 32.3918 12.8485C32.2728 12.5265 32.0978 12.285 31.8668 12.124C31.6428 11.963 31.3628 11.8825 31.0268 11.8825ZM41.908 10.57V17.5H39.9025L37.75 13.7515L37.225 12.7225H37.2145L37.2565 14.0035V17.5H35.6605V10.57H37.666L39.8185 14.3185L40.3435 15.3475H40.354L40.312 14.0665V10.57H41.908ZM43.4433 17.5V10.57H48.8403V11.9665H45.2493V13.3735H48.1053V14.686H45.2493V16.1035H48.9768V17.5H43.4433ZM52.7763 10.465C53.4203 10.465 53.9873 10.5665 54.4773 10.7695C54.9743 10.9655 55.4048 11.256 55.7688 11.641L54.8973 12.8065C54.5963 12.4915 54.2708 12.257 53.9208 12.103C53.5778 11.942 53.1858 11.8615 52.7448 11.8615C52.4858 11.8615 52.2758 11.8895 52.1148 11.9455C51.9538 12.0015 51.8383 12.0785 51.7683 12.1765C51.6983 12.2745 51.6633 12.3865 51.6633 12.5125C51.6633 12.6595 51.7298 12.7855 51.8628 12.8905C52.0028 12.9885 52.2268 13.0725 52.5348 13.1425L53.7003 13.405C54.3933 13.566 54.9008 13.8005 55.2228 14.1085C55.5448 14.4165 55.7058 14.826 55.7058 15.337C55.7058 15.827 55.5798 16.2435 55.3278 16.5865C55.0758 16.9225 54.7293 17.178 54.2883 17.353C53.8473 17.521 53.3433 17.605 52.7763 17.605C52.3143 17.605 51.8733 17.556 51.4533 17.458C51.0333 17.353 50.6553 17.206 50.3193 17.017C49.9833 16.828 49.6998 16.611 49.4688 16.366L50.3403 15.1585C50.5153 15.3615 50.7288 15.5435 50.9808 15.7045C51.2398 15.8585 51.5198 15.981 51.8208 16.072C52.1288 16.163 52.4403 16.2085 52.7553 16.2085C53.0003 16.2085 53.2033 16.184 53.3643 16.135C53.5323 16.086 53.6548 16.0125 53.7318 15.9145C53.8088 15.8165 53.8473 15.701 53.8473 15.568C53.8473 15.421 53.7948 15.2985 53.6898 15.2005C53.5848 15.0955 53.3853 15.008 53.0913 14.938L51.8103 14.6545C51.4183 14.5635 51.0683 14.4445 50.7603 14.2975C50.4593 14.1435 50.2213 13.9405 50.0463 13.6885C49.8713 13.4295 49.7838 13.1075 49.7838 12.7225C49.7838 12.2885 49.9028 11.9035 50.1408 11.5675C50.3788 11.2245 50.7218 10.955 51.1698 10.759C51.6178 10.563 52.1533 10.465 52.7763 10.465Z" />
</svg>
