<svg viewBox="0 0 16 15" fill="currentColor" xmlns="http://www.w3.org/2000/svg">
<path d="M3.41621 3.20941C4.52652 2.24659 5.94296 1.62747 7.5 1.51758V3C7.5 3.27614 7.72386 3.5 8 3.5C8.27614 3.5 8.5 3.27614 8.5 3V1.51758C11.7991 1.75042 14.467 4.26943 14.9291 7.50001L13 7.5C12.7239 7.5 12.5 7.72386 12.5 8C12.5 8.27614 12.7239 8.5 13 8.5L15 8.5C15 10.5089 14.139 12.3947 12.7888 13.6694C12.588 13.859 12.5789 14.1755 12.7684 14.3763C12.958 14.577 13.2744 14.5862 13.4752 14.3966C15.0218 12.9365 16 10.7894 16 8.5C16 4.08172 12.4183 0.5 8 0.5C3.58172 0.5 0 4.08172 0 8.5C0 10.7954 1.02085 12.9408 2.56285 14.3966C2.76365 14.5862 3.0801 14.577 3.26967 14.3763C3.45923 14.1755 3.45013 13.859 3.24934 13.6694C1.89451 12.3904 1 10.5029 1 8.5L3 8.50001C3.27614 8.50001 3.5 8.27615 3.5 8.00001C3.5 7.72387 3.27614 7.50001 3 7.50001L1.07089 7.5C1.26537 6.14034 1.85058 4.90672 2.70912 3.91654L4.14648 5.35359C4.34177 5.54883 4.65835 5.5488 4.85359 5.35352C5.04883 5.15823 5.0488 4.84165 4.85352 4.64641L3.41621 3.20941ZM11.4488 4.30748C11.6361 4.15891 11.9024 4.16374 12.0842 4.31899C12.266 4.47425 12.3124 4.7365 12.195 4.94476L12.0842 5.14091C12.0135 5.26586 11.9122 5.44478 11.7895 5.66077C11.5441 6.09267 11.213 6.67317 10.8706 7.26703C10.5284 7.86048 10.1739 8.46907 9.88179 8.95651C9.73591 9.19999 9.6042 9.41561 9.49669 9.58497C9.39671 9.74246 9.29865 9.8907 9.22665 9.97501C8.68868 10.605 7.74187 10.6796 7.11188 10.1416C6.4819 9.60364 6.40731 8.65683 6.94528 8.02685C7.01728 7.94253 7.14834 7.82247 7.28824 7.69906C7.43867 7.56636 7.63102 7.40251 7.84865 7.22031C8.28436 6.85553 8.82993 6.41006 9.36249 5.97918C9.89542 5.548 10.4169 5.13012 10.8051 4.82013C10.9992 4.66511 11.16 4.53701 11.2724 4.44764L11.4488 4.30748Z" />
</svg>
