<svg viewBox="0 0 14 16" fill="currentColor" xmlns="http://www.w3.org/2000/svg">
<path d="M6.99595 0C10.1449 0 12.7398 2.33488 12.9804 5.3554L12.9938 5.57762L12.9983 5.80214L12.9973 9.398L13.9227 11.6202C13.9453 11.6743 13.963 11.7302 13.9756 11.7871L13.9909 11.8733L13.9996 12.0046C13.9996 12.4526 13.703 12.8387 13.2504 12.9677L13.1341 12.9945L12.9996 13.0046L9.49791 13.004L9.49293 13.1653C9.40782 14.469 8.32347 15.5 6.99831 15.5C5.67282 15.5 4.58827 14.4685 4.50362 13.1644L4.49791 13.004L0.9972 13.0046C0.909248 13.0046 0.821876 12.993 0.737313 12.9702L0.612854 12.9277C0.202072 12.7567 -0.039897 12.3392 0.010504 11.8757L0.0315914 11.7483L0.0740106 11.6202L0.997307 9.401L0.998394 5.79281L1.00269 5.56824C1.12531 2.45115 3.76933 0 6.99595 0ZM8.49791 13.004H5.49791L5.50526 13.1454C5.57381 13.8581 6.14105 14.425 6.85385 14.4931L6.99831 14.5C7.778 14.5 8.41876 13.9051 8.49144 13.1445L8.49791 13.004ZM6.99595 1C4.3734 1 2.22546 2.92372 2.01544 5.38498L2.00222 5.59723L1.99831 5.80214V9.5L1.9599 9.69217L0.997189 12.0046L12.9549 12.0066L13.0001 12.0045L12.0367 9.6922L11.9983 9.5L11.9984 5.81241L11.9943 5.60831C11.8892 3.0349 9.69295 1 6.99595 1Z" />
</svg>
