<svg viewBox="0 0 16 16" fill="currentColor" xmlns="http://www.w3.org/2000/svg">
<path d="M5.5 0.0385742C5.22386 0.0385742 5 0.262432 5 0.538574V3.00012H2.5C2.22386 3.00012 2 3.22398 2 3.50012V7.56264L0.365722 8.01827C0.223908 8.05781 0.106726 8.15784 0.0454173 8.29169C-0.0158912 8.42554 -0.0150948 8.5796 0.0475943 8.71281L1.84963 12.542C2.06713 12.2801 2.37074 12.0959 2.71314 12.0284L1.20445 8.82257L7.45933 7.07872C7.81053 6.98081 8.18181 6.98076 8.53304 7.07858L14.7903 8.82126L13.2495 12.0202C13.5938 12.0772 13.9015 12.2515 14.1261 12.5047L15.9505 8.71687C16.0147 8.5835 16.0165 8.42852 15.9555 8.29367C15.8944 8.15882 15.7768 8.05795 15.6341 8.01824L14 7.56311V3.50012C14 3.22398 13.7761 3.00012 13.5 3.00012H11V0.538574C11 0.262432 10.7761 0.0385742 10.5 0.0385742H5.5ZM10 3.00012H6V1.03857H10V3.00012ZM13 4.00012V7.2846L8.80134 6.11524C8.2745 5.96851 7.71757 5.96859 7.19077 6.11546L3 7.28384V4.00012H13ZM13.4878 13.3892L13.4854 13.38C13.4327 13.1679 13.2481 13.0139 13.0298 13.0009C12.8109 12.9878 12.6089 13.1192 12.5318 13.3244L12.5275 13.3351C12.5233 13.3456 12.5162 13.3628 12.5062 13.3855C12.4863 13.4312 12.455 13.499 12.412 13.5815C12.3254 13.7478 12.1946 13.9675 12.0182 14.1847C11.6607 14.6247 11.1639 15 10.5 15C9.83579 15 9.33747 14.6244 8.9784 14.184C8.80121 13.9667 8.66976 13.7469 8.58264 13.5805C8.53939 13.498 8.50787 13.4301 8.48776 13.3844C8.47773 13.3616 8.47059 13.3445 8.4663 13.334L8.4615 13.322C8.38749 13.1277 8.20098 12.9995 7.99302 13C7.78472 13.0005 7.59845 13.1304 7.52567 13.3256L7.52146 13.3362C7.51724 13.3468 7.51021 13.3639 7.50032 13.3866C7.48049 13.4322 7.4494 13.5 7.40666 13.5825C7.32057 13.7488 7.19051 13.9683 7.01478 14.1854C6.65885 14.625 6.16364 15 5.49996 15C4.83605 15 4.33929 14.6247 3.98178 14.1847C3.80532 13.9675 3.67456 13.7478 3.58795 13.5815C3.54495 13.499 3.51365 13.4312 3.49368 13.3855C3.48372 13.3628 3.47663 13.3456 3.47238 13.3351L3.46812 13.3244L3.46764 13.3231C3.39042 13.1189 3.18958 12.9884 2.97152 13.0008C2.75314 13.0133 2.56821 13.1662 2.51499 13.3783L2.51528 13.3772L2.51279 13.3862C2.51013 13.3956 2.50546 13.4115 2.49855 13.4329C2.48471 13.476 2.4621 13.5409 2.42905 13.6202C2.3624 13.7802 2.25642 13.9914 2.09998 14.2C1.79323 14.609 1.30357 15 0.5 15C0.223858 15 0 15.2239 0 15.5C0 15.7761 0.223858 16 0.5 16C1.69643 16 2.45675 15.391 2.89998 14.8C2.95076 14.7323 2.99751 14.6647 3.0405 14.5982C3.09139 14.6696 3.14641 14.7424 3.20567 14.8153C3.66067 15.3753 4.41391 16 5.49996 16C6.58632 16 7.33827 15.375 7.79198 14.8146C7.86686 14.7221 7.93494 14.6299 7.99644 14.5404C8.05868 14.6303 8.12758 14.723 8.20337 14.816C8.65964 15.3756 9.41418 16 10.5 16C11.5861 16 12.3393 15.3753 12.7943 14.8153C12.8521 14.7441 12.9059 14.6731 12.9558 14.6034C12.9988 14.6707 13.0456 14.739 13.0966 14.8075C13.5397 15.4031 14.3028 16.0143 15.506 16C15.7821 15.9967 16.0033 15.7702 16 15.494C15.9967 15.2179 15.7702 14.9967 15.494 15C14.6911 15.0096 14.2042 14.6209 13.8988 14.2105C13.7429 14.001 13.6374 13.7879 13.5711 13.6262C13.5382 13.546 13.5157 13.4803 13.502 13.4366C13.4951 13.4149 13.4905 13.3987 13.4878 13.3892Z"/>
</svg>
