<svg  viewBox="0 0 16 11" fill="currentColor" xmlns="http://www.w3.org/2000/svg">
<path d="M1.25909 7.10214C1.94254 3.82689 4.79437 1.5 8.00002 1.5C11.2057 1.5 14.0574 3.82688 14.7409 7.10215C14.7974 7.37246 15.0622 7.54587 15.3325 7.48946C15.6029 7.43304 15.7763 7.16817 15.7199 6.89785C14.9425 3.17312 11.6934 0.5 8.00002 0.5C4.3066 0.5 1.05742 3.17311 0.280175 6.89786C0.223767 7.16818 0.397177 7.43305 0.667497 7.48946C0.937817 7.54587 1.20268 7.37246 1.25909 7.10214ZM8 3.5C6.067 3.5 4.5 5.067 4.5 7C4.5 8.933 6.067 10.5 8 10.5C9.933 10.5 11.5 8.933 11.5 7C11.5 5.067 9.933 3.5 8 3.5ZM5.5 7C5.5 5.61929 6.61929 4.5 8 4.5C9.38071 4.5 10.5 5.61929 10.5 7C10.5 8.38071 9.38071 9.5 8 9.5C6.61929 9.5 5.5 8.38071 5.5 7Z" />
</svg>
